{
	"asset":{
		"generator":"Khronos glTF Blender I/O v4.5.48",
		"version":"2.0"
	},
	"scene":0,
	"scenes":[
		{
			"name":"Scene",
			"nodes":[
				0
			]
		}
	],
	"nodes":[
		{
			"mesh":0,
			"name":"PL",
			"rotation":[
				0.7071068286895752,
				0,
				0,
				0.7071068286895752
			],
			"scale":[
				63.36705780029297,
				63.36705780029297,
				63.36705780029297
			]
		}
	],
	"materials":[
		{
			"doubleSided":true,
			"name":"Material.002",
			"pbrMetallicRoughness":{
				"baseColorFactor":[
					0,
					0.2001555860042572,
					0.8006223440170288,
					1
				],
				"metallicFactor":0,
				"roughnessFactor":0
			}
		}
	],
	"meshes":[
		{
			"name":"Curve",
			"primitives":[
				{
					"attributes":{
						"POSITION":0,
						"NORMAL":1,
						"TEXCOORD_0":2
					},
					"indices":3,
					"material":0
				}
			]
		}
	],
	"accessors":[
		{
			"bufferView":0,
			"componentType":5126,
			"count":2788,
			"max":[
				0.05317017063498497,
				8.658703198882733e-10,
				-0.0010749660432338715
			],
			"min":[
				-0.05082075297832489,
				-0.020000001415610313,
				-0.06906338036060333
			],
			"type":"VEC3"
		},
		{
			"bufferView":1,
			"componentType":5126,
			"count":2788,
			"type":"VEC3"
		},
		{
			"bufferView":2,
			"componentType":5126,
			"count":2788,
			"type":"VEC2"
		},
		{
			"bufferView":3,
			"componentType":5123,
			"count":16572,
			"type":"SCALAR"
		}
	],
	"bufferViews":[
		{
			"buffer":0,
			"byteLength":33456,
			"byteOffset":0,
			"target":34962
		},
		{
			"buffer":0,
			"byteLength":33456,
			"byteOffset":33456,
			"target":34962
		},
		{
			"buffer":0,
			"byteLength":22304,
			"byteOffset":66912,
			"target":34962
		},
		{
			"buffer":0,
			"byteLength":33144,
			"byteOffset":89216,
			"target":34963
		}
	],
	"buffers":[
		{
			"byteLength":122360,
			"uri":"PL-VERSAO1.bin"
		}
	]
}
